<svg width="30" height="30" viewBox="0 0 30 30" fill="none" xmlns="http://www.w3.org/2000/svg">
<rect width="30" height="30" rx="15" fill="#EEEEEE"/>
<mask id="mask0_292_4022" style="mask-type:alpha" maskUnits="userSpaceOnUse" x="1" y="1" width="28" height="27">
<rect x="1" y="1" width="28" height="27" fill="#D9D9D9"/>
</mask>
<g mask="url(#mask0_292_4022)">
<path d="M23.9126 15.1036C23.7335 13.4714 22.7144 12.5816 21.6521 12.1459C21.5594 7.49455 18.6626 4.5 14.2218 4.5C9.78088 4.5 6.88412 7.49455 6.79147 12.1459C5.61794 12.6307 4.5 13.6555 4.5 15.6191C4.5 18.2516 6.51353 19.2089 7.965 19.4114V19.577C7.965 19.9145 8.24294 20.1907 8.58265 20.1907C8.92235 20.1907 9.20029 19.9145 9.20029 19.577V18.8652V18.853V18.8407V11.6611C9.20029 11.3236 8.92235 11.0475 8.58265 11.0475C8.36647 11.0475 8.18735 11.1641 8.07618 11.3298C8.45294 7.85045 10.7321 5.72727 14.2218 5.72727C17.7115 5.72727 19.9906 7.85045 20.3674 11.3298C20.2562 11.1641 20.0771 11.0475 19.8609 11.0475C19.5212 11.0475 19.2432 11.3236 19.2432 11.6611V18.8223C19.2432 18.8223 19.2432 18.8345 19.2432 18.8407C19.2432 18.8468 19.2432 18.853 19.2432 18.8591V19.5709C19.2432 19.9084 19.5212 20.1845 19.8609 20.1845C20.2006 20.1845 20.4785 19.9084 20.4785 19.5709V19.4052C21.7632 19.2211 23.4679 18.4602 23.8571 16.4782C23.9621 16.6009 24.03 16.7482 24.03 16.92V20.7061C24.03 21.8414 23.1035 22.7618 21.9609 22.7618H17.5262C17.4274 22.4857 17.1618 22.2832 16.8468 22.2832H14.1785C13.7771 22.2832 13.4497 22.6084 13.4497 23.0073V23.7436C13.4497 24.1425 13.7771 24.4677 14.1785 24.4677H16.8468C17.1618 24.4677 17.4212 24.2652 17.5262 23.9891H21.9609C23.7829 23.9891 25.2653 22.5164 25.2653 20.7061V16.92C25.2653 16.067 24.6971 15.343 23.9188 15.0975L23.9126 15.1036ZM5.73529 15.6191C5.73529 13.7659 7.11882 13.2259 7.965 13.0725V18.1657C7.11265 18.0061 5.73529 17.4723 5.73529 15.6191ZM20.4724 18.1657V13.0664C21.3185 13.2198 22.7021 13.7598 22.7021 15.613C22.7021 17.4661 21.3185 18.0061 20.4724 18.1595V18.1657Z" fill="#666666"/>
<path fill-rule="evenodd" clip-rule="evenodd" d="M8.69663 6.40458C10.0407 5.0197 11.9431 4.25 14.2218 4.25C16.5005 4.25 18.4028 5.0197 19.7469 6.40458C21.0593 7.75678 21.8196 9.67486 21.8977 11.9795C22.9318 12.4466 23.9103 13.3461 24.14 14.9109C24.942 15.2284 25.5153 16.0075 25.5153 16.92V20.7061C25.5153 22.656 23.9195 24.2391 21.9609 24.2391H17.6816C17.5129 24.5203 17.2091 24.7177 16.8468 24.7177H14.1785C13.6405 24.7177 13.1997 24.2821 13.1997 23.7436V23.0073C13.1997 22.4688 13.6405 22.0332 14.1785 22.0332H16.8468C17.2056 22.0332 17.5158 22.2278 17.6837 22.5118H21.9609C22.967 22.5118 23.78 21.7018 23.78 20.7061V17.493C23.124 18.8232 21.8026 19.4174 20.7273 19.6176C20.7028 20.073 20.3215 20.4345 19.8609 20.4345C19.3846 20.4345 18.9932 20.048 18.9932 19.5709V11.6611C18.9932 11.184 19.3846 10.7975 19.8609 10.7975C19.9242 10.7975 19.985 10.8045 20.0429 10.8174C19.7917 9.37912 19.1845 8.22561 18.2929 7.40803C17.2932 6.49122 15.9146 5.97727 14.2218 5.97727C12.529 5.97727 11.1504 6.49122 10.1506 7.40803C9.25904 8.22561 8.65183 9.37912 8.40065 10.8174C8.45858 10.8045 8.51936 10.7975 8.58265 10.7975C9.05889 10.7975 9.45029 11.184 9.45029 11.6611V19.577C9.45029 20.0542 9.05889 20.4407 8.58265 20.4407C8.12228 20.4407 7.74119 20.0795 7.7163 19.6244C7.00416 19.4942 6.18817 19.1908 5.52444 18.6154C4.78486 17.9742 4.25 17.0078 4.25 15.6191C4.25 14.5866 4.54507 13.7856 5.00643 13.1769C5.42835 12.6203 5.98021 12.2363 6.54585 11.9799C6.62384 9.67505 7.38419 7.75685 8.69663 6.40458ZM20.2224 12.767L20.517 12.8204C20.9622 12.9011 21.5683 13.0862 22.0669 13.5122C22.5754 13.9465 22.9521 14.6148 22.9521 15.613C22.9521 16.6111 22.5754 17.2794 22.0669 17.7138C21.5683 18.1397 20.9622 18.3248 20.517 18.4055L20.4735 18.1657H20.2224V12.767ZM8.215 12.7731V18.4668L7.919 18.4114C7.47207 18.3278 6.86607 18.1428 6.36816 17.7176C5.86025 17.2839 5.48529 16.6169 5.48529 15.6191C5.48529 14.621 5.862 13.9526 6.37045 13.5183C6.86908 13.0923 7.47514 12.9072 7.9204 12.8265L8.215 12.7731Z" fill="#1C1B1F"/>
</g>
</svg>
