<svg width="30" height="30" viewBox="0 0 30 30" fill="none" xmlns="http://www.w3.org/2000/svg">
<rect width="30" height="30" rx="15" fill="#3F6CE5"/>
<mask id="mask0_292_4034" style="mask-type:alpha" maskUnits="userSpaceOnUse" x="3" y="3" width="24" height="24">
<rect x="3" y="3" width="24" height="24" fill="#D9D9D9"/>
</mask>
<g mask="url(#mask0_292_4034)">
<path d="M15 14.7031C14.0333 14.7031 13.2083 14.3571 12.525 13.6651C11.8417 12.9738 11.5 12.1531 11.5 11.2031C11.5 10.2365 11.8417 9.41146 12.525 8.72813C13.2083 8.04479 14.0333 7.70312 15 7.70312C15.9667 7.70312 16.7917 8.04479 17.475 8.72813C18.1583 9.41146 18.5 10.2365 18.5 11.2031C18.5 12.1531 18.1583 12.9738 17.475 13.6651C16.7917 14.3571 15.9667 14.7031 15 14.7031ZM7.5 22.3031V20.0781C7.5 19.5948 7.63333 19.1448 7.9 18.7281C8.16667 18.3115 8.525 17.9865 8.975 17.7531C9.95833 17.2698 10.9543 16.9071 11.963 16.6651C12.971 16.4238 13.9833 16.3031 15 16.3031C16.0167 16.3031 17.0293 16.4238 18.038 16.6651C19.046 16.9071 20.0417 17.2698 21.025 17.7531C21.475 17.9865 21.8333 18.3115 22.1 18.7281C22.3667 19.1448 22.5 19.5948 22.5 20.0781V22.3031H7.5ZM9 20.8031H21V20.0781C21 19.8781 20.9417 19.6948 20.825 19.5281C20.7083 19.3615 20.55 19.2198 20.35 19.1031C19.4833 18.6865 18.6043 18.3655 17.713 18.1401C16.821 17.9155 15.9167 17.8031 15 17.8031C14.0833 17.8031 13.179 17.9155 12.287 18.1401C11.3957 18.3655 10.5167 18.6865 9.65 19.1031C9.45 19.2198 9.29167 19.3615 9.175 19.5281C9.05833 19.6948 9 19.8781 9 20.0781V20.8031ZM15 13.2031C15.55 13.2031 16.021 13.0071 16.413 12.6151C16.8043 12.2238 17 11.7531 17 11.2031C17 10.6531 16.8043 10.1821 16.413 9.79013C16.021 9.39879 15.55 9.20312 15 9.20312C14.45 9.20312 13.9793 9.39879 13.588 9.79013C13.196 10.1821 13 10.6531 13 11.2031C13 11.7531 13.196 12.2238 13.588 12.6151C13.9793 13.0071 14.45 13.2031 15 13.2031Z" fill="white"/>
</g>
</svg>
