<svg width="90" height="50" viewBox="0 0 90 50" fill="none" xmlns="http://www.w3.org/2000/svg">
<path d="M90 6C90 2.68629 87.3137 0 84 0H0V50H84C87.3137 50 90 47.3137 90 44V6Z" fill="url(#paint0_linear_980_21844)"/>
<rect x="12" y="10" width="30" height="30" rx="6" fill="white"/>
<mask id="mask0_980_21844" style="mask-type:alpha" maskUnits="userSpaceOnUse" x="12" y="10" width="30" height="30">
<rect x="12" y="10" width="30" height="30" fill="#5F3AF4"/>
</mask>
<g mask="url(#mask0_980_21844)">
<path d="M31.1748 34.8571L33.5 32.59L26.1515 25.4286L33.5 18.2671L31.1748 16L21.5 25.4286L31.1748 34.8571Z" fill="#5F3AF4"/>
</g>
<path d="M52.7559 21.4961V20.2715H57.2559V18.2207H54.3379V12.6016H55.8145V14.3066H60.1855V12.6016H61.6504V18.2207H58.7324V20.2715H63.2441V21.4961H52.7559ZM60.1855 15.543H55.8145V16.9961H60.1855V15.543ZM65.8258 17.9219V12.748H72.9742V13.9727H67.3023V16.6973H73.1441V17.9219H65.8258ZM64.1559 21.3906V20.166H74.6441V21.3906H64.1559ZM58.5273 32.4336C57.9297 33.1914 57.1133 33.5703 56.0781 33.5703C55.2148 33.5703 54.5 33.2969 53.9336 32.75C53.3711 32.2031 53.0898 31.5293 53.0898 30.7285C53.0898 29.9277 53.3711 29.2539 53.9336 28.707C54.5 28.1602 55.2148 27.8867 56.0781 27.8867C57.1055 27.8867 57.9141 28.2578 58.5039 29H60.9648V27.752H62.4297V33.5H60.9648V32.4336H58.5273ZM56.0781 29.0938C55.6133 29.0938 55.2402 29.248 54.959 29.5566C54.6816 29.8613 54.543 30.252 54.543 30.7285C54.543 31.209 54.6797 31.6035 54.9531 31.9121C55.2305 32.2168 55.6055 32.3691 56.0781 32.3691C56.5391 32.3691 56.9121 32.2168 57.1973 31.9121C57.4863 31.6035 57.6309 31.209 57.6309 30.7285C57.6309 30.252 57.4863 29.8613 57.1973 29.5566C56.9121 29.248 56.5391 29.0938 56.0781 29.0938ZM59.0312 31.3027H60.9648V30.125H59.0312C59.0703 30.3203 59.0898 30.5215 59.0898 30.7285C59.0898 30.9316 59.0703 31.123 59.0312 31.3027ZM55.1172 38.873V35.8496H60.9883V35.2168H55.1172V33.9805H62.4297V36.9805H56.5703V37.6426H62.7168V38.873H55.1172ZM72.1715 39.0547V27.752H73.6129V39.0547H72.1715ZM70.443 28.748C70.4156 30.3613 69.9586 31.8516 69.0719 33.2188C68.1891 34.582 66.9469 35.7031 65.3453 36.582L64.2145 35.5156C65.3707 35.0742 66.3883 34.3438 67.2672 33.3242C68.1461 32.3047 68.6852 31.1914 68.8844 29.9844H64.9V28.748H70.443Z" fill="white"/>
<defs>
<linearGradient id="paint0_linear_980_21844" x1="141.75" y1="0" x2="5.625" y2="0" gradientUnits="userSpaceOnUse">
<stop stop-color="#3F6CE8"/>
<stop offset="1" stop-color="#6431F6"/>
</linearGradient>
</defs>
</svg>
