<svg width="18" height="17" viewBox="0 0 18 17" fill="none" xmlns="http://www.w3.org/2000/svg">
<g clip-path="url(#clip0_2556_2959)">
<path d="M17.7674 8.14692L0.62842 0.0446969C0.473433 -0.0286519 0.284005 -0.0117252 0.150544 0.0954769C0.0170833 0.197037 -0.034579 0.366303 0.0213885 0.518643L2.80254 8.14128C2.85851 8.11871 2.91878 8.10178 2.97905 8.10178H16.1647C16.4014 8.10178 16.5952 8.27669 16.5952 8.49674C16.5952 8.71679 16.4014 8.89169 16.1647 8.89169H2.97905C2.91448 8.89169 2.8542 8.87477 2.80254 8.8522L0.0213885 16.4805C-0.034579 16.6328 0.0170833 16.8021 0.150544 16.9036C0.232343 16.9657 0.331362 16.9996 0.430382 16.9996C0.499265 16.9996 0.563842 16.9826 0.62842 16.9544L17.7674 8.84656C17.9095 8.77885 17.9999 8.64344 17.9999 8.49674C17.9999 8.35004 17.9095 8.21463 17.7674 8.14692Z" fill="#D3D3D3"/>
</g>
<defs>
<clipPath id="clip0_2556_2959">
<rect width="18" height="17" fill="white"/>
</clipPath>
</defs>
</svg>
